<?xml version="1.0" encoding="utf-8" ?><svg xmlns="http://www.w3.org/2000/svg" xmlns:xlink="http://www.w3.org/1999/xlink" width="1792" height="1792" viewBox="0 0 1792 1792"><path fill="#3A5524" d="M752.076 314.387C765.389 312.531 780.29 315.357 792.234 321.32C812.601 331.487 824.369 349.132 831.124 370.413C851.465 434.49 829.605 520.962 801.417 579.674C789.611 604.176 775.326 627.403 758.784 648.992C751.877 658.101 743.382 667.668 735.924 676.203C730.887 681.967 712.93 696.894 711.211 702.746C707.675 723.145 717.367 756.092 723.543 774.869C738.607 820.662 774.918 827.775 807.994 793.549C846.631 753.567 849.712 694.32 849.543 641.699C849.709 625.587 842.951 593.781 850.599 579.664C862.575 557.559 909.629 537.865 933.252 551.226C943.207 556.856 949.255 565.955 950.228 576.663C951.906 595.129 946.26 613.305 943.262 631.347C933.31 684.567 920.178 742.713 934.164 796.341C937.982 810.984 950.409 819.873 965.119 813.379C981.135 806.307 996.074 786.145 1003.02 770.359C1019.07 733.852 1017.2 689.114 1004.11 651.975C998.439 638.513 992.416 626.121 986.432 612.68C972.441 581.257 1007.07 556.218 1032.45 546.471C1042.5 542.609 1058.48 541.825 1068.29 547.255C1075.29 551.129 1080.7 557.967 1083.63 565.568C1096.77 603.386 1090.49 648.042 1093.87 687.586C1095.9 715.181 1099.4 743.325 1107.61 769.801C1110.67 779.671 1119.27 799.889 1132.57 793.423C1148.55 785.651 1163.05 759.401 1169.66 743.878C1178.8 722.41 1193.16 695.851 1180.16 673.432C1174.23 663.018 1167.74 651.011 1163.61 640.123C1153.56 612.361 1154.78 580.79 1166.52 554.04C1177.4 526.682 1212.31 503.636 1241.69 519.215C1283.61 541.448 1262.19 611.877 1256.01 648.383C1254.1 659.693 1244.97 676.474 1248.56 687.715C1251.07 695.596 1265.94 697.547 1269.49 688.964C1273.85 680.181 1277.47 671.45 1281.6 662.713C1289.9 644.845 1300.06 627.903 1311.91 612.167C1348.33 564.629 1408.43 528.347 1469.78 547.994C1519.36 563.872 1531.2 618.541 1514.85 663.278C1495.9 715.622 1444.66 749.77 1393.15 764.956C1378.55 769.261 1362.03 768.295 1348.53 774.978C1348.21 781.291 1347.93 784.824 1349.82 791.011C1366.55 845.695 1426.88 834.911 1464.1 809.653C1485.34 795.262 1503.3 776.428 1528.75 769.451C1564.33 759.696 1598.64 778.547 1607.75 814.651C1617.2 852.088 1609.32 890.319 1590.12 923.178C1520.32 1041.03 1378.16 1063.29 1252.02 1062.26C1032.27 1060.48 767.64 987.158 581.9 1144.31C556.833 1165.52 534.77 1185.01 501.447 1165.59C497.055 1162.39 492.856 1159.15 488.997 1155.31C472.817 1139.2 462.798 1117.39 462.981 1094.39C463.208 1065.9 478.815 1039.57 498.808 1020.2C619.19 903.62 896.943 961.339 1046.35 982.432C1106.78 990.963 1167.73 998.54 1228.83 999.291C1322.62 1000.44 1439.61 990.562 1510.22 920.944C1528.45 902.972 1547.78 877.44 1547.81 850.66C1547.82 845.509 1547.39 838.378 1543.09 834.791C1528.04 822.241 1491.48 860.5 1481.38 869.097C1474.39 875.043 1466.79 880.428 1459.02 885.303C1440.36 897.015 1419.75 905.037 1397.74 907.23C1363.36 910.657 1330.37 902.732 1303.53 880.455C1263.26 847.041 1257.89 806.703 1253.12 757.561C1244.87 752.841 1236.85 748.694 1228.42 744.344C1202.2 794.913 1147.16 957.01 1066.59 895.526C1046.91 880.507 1041.83 847.2 1028.52 825.526C1025.18 829 1022.28 832.819 1019.35 836.639C998.231 863.882 975.381 890.097 942.547 903.356C907.12 917.663 869.254 907.323 850.836 872.691C845.32 862.318 841.496 851.506 837.174 840.595C828.973 847.576 820.525 857.488 812.874 865.385C780.014 899.3 725.499 925.363 680.804 897.917C631.012 867.341 629.265 801.212 619.295 749.864C618.712 746.852 618.002 746.145 615.55 744.73C608.24 744.144 601.439 747.683 598.519 753.837C592.678 766.94 590.755 782.154 586.888 796.083C559.924 893.215 474.975 977.571 368.374 966.947C314.55 961.582 269.416 936.752 235.445 895.048C187.397 836.063 172.385 758.799 180.547 684.666C192.458 554.821 293.282 411.347 436.766 422.276C517.638 428.435 576.663 513.427 592.659 586.539C593.864 592.045 595.196 597.953 595.96 603.607C597.453 612.276 598.085 616.255 599.574 625.467C602.067 640.894 599.26 662.481 606.762 676.196C607.514 677.571 610.896 677.971 612.237 677.416C625.371 671.986 622.042 644.25 622.147 632.454C622.328 620.465 622.754 608.481 623.425 596.51C627.962 512.006 646.355 331.484 752.076 314.387ZM462.226 847.989C483.093 827.164 499.274 801.447 507.085 772.757C508.585 767.25 509.469 761.422 507.01 756.081C499.781 749.938 487.391 749.123 478.368 746.733C441.32 736.919 404.505 721.34 375.324 696.035C357.736 680.73 342.629 662.788 330.544 642.85C326.689 636.289 323.154 629.547 319.95 622.645C316.161 614.275 307.019 586.466 301.601 582.368C282.177 609.573 279.804 660.321 279.079 693.708C277.907 747.678 298.967 819.182 345.298 851.63C383.854 878.633 425.516 877.902 462.226 847.989ZM497.529 683.767C506.08 685.538 519.845 688.154 520.956 675.007C526.785 606.03 497.847 482.922 408.173 487.552C397.452 491.31 389.968 495.297 384.411 506.16C374.809 524.928 383.891 560.304 390.452 578.887C404.969 620.006 438.85 657.952 478.568 676.418C484.74 679.235 491.071 681.688 497.529 683.767ZM720.813 611.531C740.864 582.847 755.393 552.728 765.963 519.376C774.15 493.545 802.047 389.863 754.504 393.794C710.512 418.632 707.083 529.917 704.347 575.511C703.765 585.206 700.631 614.649 710.43 619.405C714.972 619.397 718.329 614.968 720.813 611.531ZM1349.1 715.674C1357.85 715.914 1365.94 716.523 1374.51 714.503C1402.43 707.888 1426.62 690.555 1441.86 666.25C1455 645.148 1465.44 609.305 1428.43 607.565C1381.49 613.128 1353.24 673.781 1349.1 715.674Z"/><path fill="#C5A350" d="M1419.69 677.553L1418.81 678.463C1405.56 691.932 1387.29 703.066 1367.2 705.303C1364.97 705.552 1363.78 704.182 1362.57 702.869C1361.41 698.101 1363.15 693.511 1364.72 688.122C1372.65 661.026 1403.53 611.913 1436.94 619.028C1449.88 621.785 1441.35 644.816 1437.24 653.782C1431.4 663.578 1427.79 669.534 1419.69 677.553Z"/><path fill="#C5A350" d="M1419.69 677.553C1420.26 666.917 1425.99 655.854 1437.24 653.782C1431.4 663.578 1427.79 669.534 1419.69 677.553Z"/><path fill="#3A5524" d="M1487.27 342.419L1490.9 342.399L1491.94 343.768C1493.23 351.124 1490.7 360.832 1489.28 368.246C1470.78 465.159 1416.15 533.261 1316.13 552.63C1335.63 504.314 1374.81 460.04 1410.39 422.783C1414.45 418.526 1419.06 415.045 1422.61 410.269L1421.6 410.196C1381.11 439.622 1343.7 474.687 1316.53 516.841C1310.72 525.864 1303.99 535.303 1300.14 545.32C1293.33 506.649 1303.96 461.602 1326.78 429.9C1363.79 378.466 1426.98 352.973 1487.27 342.419Z"/><path fill="#C5A350" d="M913.678 398.531C943.882 394.186 971.887 415.154 976.222 445.36C980.557 475.566 959.579 503.564 929.372 507.889C899.179 512.212 871.197 491.246 866.864 461.054C862.531 430.863 883.488 402.874 913.678 398.531Z"/><path fill="#869A50" d="M1515.56 1217.5L1526.9 1217.41C1526.71 1232.29 1527.93 1372 1525.88 1376.39C1524.89 1378.53 1524.1 1379.04 1521.96 1379.87C1515.06 1378.46 1515.98 1369.22 1516.05 1364.09C1498.71 1380.61 1480.43 1387.84 1457.79 1374.74C1421.53 1349.76 1429.83 1273.84 1477.89 1267.78C1493.88 1265.76 1503.21 1271.4 1515.13 1280.91C1516.11 1260.83 1515.58 1237.78 1515.56 1217.5ZM1486.08 1371.39C1499.93 1368.74 1504.06 1363.54 1514.23 1354.29C1516.54 1343.47 1515.78 1303.05 1514.36 1291.29C1506.19 1283.3 1495.15 1277.31 1483.49 1277.42C1481.88 1277.44 1480.27 1277.49 1478.67 1277.58C1449.95 1285.3 1443.28 1317.96 1450.05 1343.62C1454.91 1362.03 1467.06 1371.65 1486.08 1371.39Z"/><path fill="#869A50" d="M1210.31 1285.56C1220.81 1274.74 1231.24 1267.15 1247.36 1267C1260.33 1266.85 1272.78 1272.11 1281.72 1281.52C1314.01 1315.06 1296.21 1385.71 1242.93 1381.25C1231.4 1380.29 1219.75 1373.66 1212.22 1364.89C1196.47 1346.09 1197.72 1325.3 1201.25 1302.8C1204.63 1295.45 1205.88 1292.43 1210.31 1285.56ZM1212.3 1308.01C1206.63 1335.12 1214.49 1370.35 1248.23 1371.36C1257.31 1371.7 1266.09 1368.15 1272.38 1361.6C1284.16 1349.57 1288.29 1328.73 1285.06 1312.68C1278.48 1280.09 1245.56 1264.01 1220.96 1290.44C1216.94 1296.69 1214.41 1300.7 1212.3 1308.01Z"/><path fill="#869A50" d="M1210.31 1285.56C1215.67 1286.49 1217.26 1286.41 1220.96 1290.44C1216.94 1296.69 1214.41 1300.7 1212.3 1308.01C1207.29 1306.99 1205.29 1305.77 1201.25 1302.8C1204.63 1295.45 1205.88 1292.43 1210.31 1285.56Z"/><path fill="#869A50" d="M368.628 1267.31C436.933 1269.69 435.198 1377.42 371.923 1380.89C305.67 1380.45 299.7 1276.38 368.628 1267.31ZM375.809 1371.03C380.837 1369.56 386.438 1367.74 390.39 1364.33C420.949 1337.94 411.788 1274.67 363.575 1277.63C316.208 1293.82 322.614 1373.09 375.809 1371.03Z"/><path fill="#869A50" d="M1359.61 1268.08C1411.78 1263.6 1429.86 1320.39 1407.06 1359.23C1399.42 1372.24 1388.09 1377.46 1373.96 1380.57C1305.43 1385.95 1296.29 1281.88 1359.61 1268.08ZM1373.75 1371.08C1422.5 1353.65 1411 1273.8 1361.1 1277.64C1311.13 1293.89 1321.97 1375.12 1373.75 1371.08Z"/><path fill="#869A50" d="M495.237 1229.79C504.292 1229.32 515.145 1229.51 524.349 1229.45C521.767 1233.14 522.09 1234.21 522.553 1239L506.539 1238.89L506.529 1368.59C528.275 1368.79 554.826 1371.22 571.205 1354.19C593.509 1331 592.662 1293.13 580.497 1265.59C582.499 1266.58 581.658 1266.33 584.026 1266.27C587.129 1264.94 588.781 1262.24 590.91 1259.55C606.847 1290.04 604.59 1338.27 579.044 1363.13C559.183 1382.46 520.999 1379.2 495.25 1378.23L495.237 1229.79Z"/><path fill="#3A5524" d="M1489.12 463.071C1533.11 459.275 1535.9 509.177 1490.46 524.282C1481.62 524.651 1474.83 525.056 1466.77 520.224C1460.91 516.756 1456.72 511.053 1455.15 504.428C1449.89 482.527 1469.98 467.401 1489.12 463.071ZM1507.45 484.951C1510.08 483.123 1510.85 482.89 1511.99 479.876C1511.08 472.493 1502.27 471.432 1496.1 470.726C1493.11 472.894 1492.61 472.978 1491.51 476.295C1492.55 483.596 1501.34 484.541 1507.45 484.951Z"/><path fill="#869A50" d="M920.227 1285.54C932.275 1275.28 945.273 1265.59 962.129 1267.25C969.931 1268.02 977.018 1271.67 981.877 1277.88C994.338 1293.81 990.854 1355.66 990.272 1378.26L979.078 1378.9C979.014 1363.91 979.042 1348.92 979.162 1333.92C979.25 1314.57 983.282 1276.01 953.473 1277.45C939.269 1278.13 930.122 1287.47 921.438 1297.55C919.632 1322.1 920.497 1353.16 920.551 1378.16L909.164 1378.64C909.217 1371.35 908.975 1360.28 909.36 1353.25C909.315 1344.48 907.869 1273.39 910.622 1269.99C914.478 1269.43 914.4 1269.42 918.247 1269.99C920.523 1272.5 920.227 1281.71 920.227 1285.54Z"/><path fill="#869A50" d="M909.36 1353.25C909.315 1344.48 907.869 1273.39 910.622 1269.99C914.478 1269.43 914.4 1269.42 918.247 1269.99C920.523 1272.5 920.227 1281.71 920.227 1285.54C917.372 1289.53 919.053 1291.63 915.669 1294.19L913.544 1294.3C912.443 1293.27 911.929 1292.54 910.533 1291.94C907.684 1301.73 912.315 1340.46 909.36 1353.25Z"/><path fill="#869A50" d="M285.119 1326.35C267.974 1308.57 241.501 1306.05 222.966 1291.71C193.968 1269.27 213.579 1229.28 246.74 1226.82C266.898 1225.32 281.83 1232.38 296.605 1244.76C294.612 1247.26 291.83 1249.99 289.579 1252.33C271.683 1238.08 252.555 1230.17 230.166 1244.26C226.24 1246.73 221.443 1254.54 221.353 1259.21C220.609 1298.01 272 1291.83 293.839 1317.88L294.633 1318.85C290.202 1321.72 288.906 1322.5 285.119 1326.35Z"/><path fill="#869A50" d="M734.18 1378.8C733.307 1344.55 734.493 1309.98 734.1 1275.68C734.063 1272.48 734.267 1271.05 736.522 1268.99C739.632 1268.5 739.406 1268.53 742.246 1269.94C745.222 1273.32 744.863 1279.1 745.132 1283.79L746.08 1285.33C747.964 1284.62 747.841 1284.61 749.307 1283.19L753.167 1289.41L746.516 1297.27C744.798 1322.89 745.49 1352.67 745.546 1378.73L734.18 1378.8Z"/><path fill="#869A50" d="M745.132 1283.79L746.08 1285.33C747.964 1284.62 747.841 1284.61 749.307 1283.19L753.167 1289.41L746.516 1297.27C741.596 1291.75 741.069 1290.2 745.132 1283.79Z"/><path fill="#869A50" d="M862.681 1271.91C879.074 1285.88 878.286 1303.65 878.322 1323.54C878.355 1341.96 878.034 1360.38 878.078 1378.8L867.151 1378.73C866.888 1365.45 866.772 1352.17 866.805 1338.89C866.857 1321.2 869.427 1296.12 857.452 1282.23C860.569 1277.93 860.885 1276.95 862.681 1271.91Z"/><path fill="#869A50" d="M622.015 1348.89C626.279 1350.63 628.924 1351.5 633.358 1352.77C633.787 1354.16 634.248 1355.54 634.74 1356.9C644.081 1382.37 683.846 1370.56 691.872 1350.49C696.578 1351.55 698.098 1350.95 702.796 1349.82C703.246 1357.87 705.16 1376.1 696.9 1380.46C692.082 1377.08 692.665 1369.44 692.579 1364.05C682.068 1371.83 672.309 1380.72 658.76 1381.38C635.167 1382.53 622.948 1371.74 622.015 1348.89Z"/><path fill="#869A50" d="M1565.08 1226.17L1576.64 1226.89C1575.18 1261.8 1577.26 1300.14 1574.37 1334.17C1574.11 1334.57 1573.11 1335.46 1572.71 1335.84C1568.96 1336.28 1569.78 1336.76 1567 1335.28C1565.34 1327.19 1565.58 1305.75 1565.49 1296.47L1565.08 1226.17Z"/><defs><linearGradient id="gradient_0" gradientUnits="userSpaceOnUse" x1="1131.1278" y1="1355.3368" x2="1134.2028" y2="1379.087"><stop offset="0" stop-color="#C5A350"/><stop offset="1" stop-color="#869A50"/></linearGradient></defs><path fill="url(#gradient_0)" d="M1162.24 1349.91C1164.65 1348.76 1168.7 1349.57 1171.79 1349.79C1172.28 1350.28 1173.02 1350.95 1173.4 1351.48L1173.38 1364.07C1157.57 1376.42 1139.95 1383.54 1119.56 1380.89C1108.73 1379.4 1098.51 1374.93 1090.06 1367.99C1093.4 1365.54 1095.42 1363.01 1098.18 1359.95C1120.15 1375.09 1139.73 1373.37 1162.12 1360.79L1162.24 1349.91Z"/><path fill="#869A50" d="M1073.79 1260.16C1077.26 1263.24 1079.51 1263.94 1084.15 1264.85C1073.33 1289.07 1072.49 1313.81 1082.24 1338.68L1082.74 1339.94C1077.86 1341.06 1075.95 1341.5 1071.21 1343.42C1060.05 1317.3 1060.76 1285.45 1073.79 1260.16Z"/><defs><linearGradient id="gradient_1" gradientUnits="userSpaceOnUse" x1="834.21875" y1="1254.027" x2="803.49213" y2="1296.8124"><stop offset="0" stop-color="#869A50"/><stop offset="1" stop-color="#C5A350"/></linearGradient></defs><path fill="url(#gradient_1)" d="M809.424 1288.42C824.235 1272.73 840.218 1259.89 862.681 1271.91C860.885 1276.95 860.569 1277.93 857.452 1282.23C849.428 1277.82 843.386 1276.41 834.336 1279.06C825.572 1281.62 814.209 1291.63 811.609 1300.59C807.229 1298.99 803.512 1296.05 799.145 1296.21C795.677 1287.38 794.182 1283.7 785.982 1278.83C784.454 1274.59 780.358 1269.42 780.53 1267.57C795.336 1268.41 803.39 1274.83 809.424 1288.42Z"/><path fill="#869A50" d="M645.324 1271.31C675.698 1262.07 701.448 1268.23 701.849 1305.43C701.855 1308.93 702.574 1313.71 700.792 1316.03C696.852 1313.3 694.837 1317.08 692.689 1320.05L691.956 1320.37L691.304 1319.43C688.769 1317.92 686.521 1318.57 683.459 1318.87L678.835 1311.2L691.859 1309.7C691.624 1306.28 691.208 1302.87 690.613 1299.49C686.64 1277.06 672.356 1275.09 653.027 1279.18C651.352 1274.81 649.178 1273.91 645.324 1271.31Z"/><path fill="#869A50" d="M799.145 1296.21C803.512 1296.05 807.229 1298.99 811.609 1300.59C812.42 1306.34 811.987 1322.14 811.971 1328.49L811.973 1378.63L800.613 1378.45C800.664 1358.04 801.827 1314.38 799.145 1296.21Z"/><path fill="#869A50" d="M1126.19 1303.84C1141.95 1303.33 1157.73 1303.23 1173.5 1303.54L1173.4 1326.97L1173.4 1351.48C1173.02 1350.95 1172.28 1350.28 1171.79 1349.79C1168.7 1349.57 1164.65 1348.76 1162.24 1349.91C1162.23 1339.55 1161.69 1322.99 1162.75 1313.28L1126.14 1313.44L1126.19 1303.84Z"/><path fill="#869A50" d="M1162.75 1313.28C1162.93 1318.84 1162.98 1324.41 1162.9 1329.98C1167.17 1328.41 1168.96 1327.73 1173.4 1326.97L1173.4 1351.48C1173.02 1350.95 1172.28 1350.28 1171.79 1349.79C1168.7 1349.57 1164.65 1348.76 1162.24 1349.91C1162.23 1339.55 1161.69 1322.99 1162.75 1313.28Z"/><path fill="#869A50" d="M1091.26 1239.29C1117.23 1221.38 1149.26 1222.08 1172.01 1244.89L1165.07 1252.18C1143.1 1234.35 1121.66 1230.75 1098.05 1247.8C1095.74 1245 1093.48 1242.16 1091.26 1239.29Z"/><path fill="#869A50" d="M547.352 1230.51C566.536 1235.18 579.695 1241.37 590.452 1258.79L590.91 1259.55C588.781 1262.24 587.129 1264.94 584.026 1266.27C581.658 1266.33 582.499 1266.58 580.497 1265.59C567.214 1248.02 562.763 1245.13 541.34 1240.35C545.592 1237.6 546.204 1235.31 547.352 1230.51Z"/><path fill="#869A50" d="M220.985 1360.38C237.383 1369.52 245.699 1372.53 264.956 1369.91C268.111 1373.59 268.27 1374.5 268.417 1379.57C245.841 1383.43 231.399 1380.08 212.129 1367.74C215.528 1365.19 217.827 1363.23 220.985 1360.38Z"/><path fill="#869A50" d="M288.816 1347.57C292.857 1350.49 294.822 1351.62 299.889 1352.22C292.683 1368.52 285.565 1374.72 268.417 1379.57C268.27 1374.5 268.111 1373.59 264.956 1369.91C277.958 1365.16 284.835 1361.55 288.816 1347.57Z"/><path fill="#869A50" d="M701.849 1305.43C703.238 1313.91 702.773 1340.17 702.796 1349.82C698.098 1350.95 696.578 1351.55 691.872 1350.49C691.095 1343.13 691.084 1327.52 691.956 1320.37L692.689 1320.05C694.837 1317.08 696.852 1313.3 700.792 1316.03C702.574 1313.71 701.855 1308.93 701.849 1305.43Z"/><path fill="#869A50" d="M1567.65 1357.92C1583.16 1358.95 1585.01 1371.41 1573.73 1380.72C1556.52 1380.43 1556.93 1367.68 1567.65 1357.92Z"/><path fill="#869A50" d="M294.633 1318.85C301.64 1330.68 302.546 1338.22 299.889 1352.22C294.822 1351.62 292.857 1350.49 288.816 1347.57C290.447 1339.02 288.607 1333.88 285.119 1326.35C288.906 1322.5 290.202 1321.72 294.633 1318.85Z"/><path fill="#869A50" d="M1082.74 1339.94C1087.65 1348.87 1090.4 1353.17 1098.18 1359.95C1095.42 1363.01 1093.4 1365.54 1090.06 1367.99C1080.26 1359.58 1076.98 1354.81 1071.21 1343.42C1075.95 1341.5 1077.86 1341.06 1082.74 1339.94Z"/><path fill="#869A50" d="M749.307 1283.19C756.622 1273.87 768.366 1266.77 780.53 1267.57C780.358 1269.42 784.454 1274.59 785.982 1278.83C771.274 1275.59 764.051 1279.19 753.167 1289.41L749.307 1283.19Z"/><path fill="#869A50" d="M1091.26 1239.29C1093.48 1242.16 1095.74 1245 1098.05 1247.8C1091.42 1253.79 1088.78 1257.15 1084.15 1264.85C1079.51 1263.94 1077.26 1263.24 1073.79 1260.16C1079.02 1250.4 1082.75 1246.05 1091.26 1239.29Z"/><path fill="#869A50" d="M628.223 1332.14C635.525 1324.62 642.603 1321.72 652.064 1317.53C654.031 1320.91 654.866 1322.52 657.364 1325.46C648.605 1328.38 642.711 1330.98 636.386 1338.26C633.637 1336.26 630.915 1334.22 628.223 1332.14Z"/><path fill="#869A50" d="M652.064 1317.53C660.84 1315.05 669.92 1313.17 678.835 1311.2L683.459 1318.87C674.713 1321.55 665.887 1322.73 657.364 1325.46C654.866 1322.52 654.031 1320.91 652.064 1317.53Z"/><path fill="#869A50" d="M524.349 1229.45C532.498 1229.57 539.234 1229.85 547.352 1230.51C546.204 1235.31 545.592 1237.6 541.34 1240.35C535.233 1239.74 528.71 1239.41 522.553 1239C522.09 1234.21 521.767 1233.14 524.349 1229.45Z"/><path fill="#869A50" d="M627.093 1282.35C633.549 1276.36 637.441 1274.85 645.324 1271.31C649.178 1273.91 651.352 1274.81 653.027 1279.18C643.573 1282.02 640.432 1284.12 632.316 1289.55L627.093 1282.35Z"/><path fill="#869A50" d="M628.223 1332.14C630.915 1334.22 633.637 1336.26 636.386 1338.26C634.332 1343.61 633.319 1346.97 633.358 1352.77C628.924 1351.5 626.279 1350.63 622.015 1348.89C623.015 1341.16 624.395 1338.57 628.223 1332.14Z"/><path fill="#869A50" d="M209.42 1350.17L220.985 1360.38C217.827 1363.23 215.528 1365.19 212.129 1367.74C207.555 1364.07 205.554 1361.77 201.618 1357.44L209.42 1350.17Z"/></svg>